<mxfile host="app.diagrams.net" agent="Mozilla/5.0 (Macintosh; Intel Mac OS X 10.15; rv:131.0) Gecko/20100101 Firefox/131.0" version="24.7.17">
  <diagram name="Page-1" id="8YoN60W2fJkPDQtM5WfO">
    <mxGraphModel dx="1026" dy="624" grid="1" gridSize="10" guides="1" tooltips="1" connect="1" arrows="1" fold="1" page="1" pageScale="1" pageWidth="827" pageHeight="1169" math="0" shadow="0">
      <root>
        <mxCell id="0" />
        <mxCell id="1" parent="0" />
        <mxCell id="dwLoChwqNWsPl4xWxsss-1" value="AWS Cloud" style="sketch=0;outlineConnect=0;gradientColor=none;html=1;whiteSpace=wrap;fontSize=12;fontStyle=0;shape=mxgraph.aws4.group;grIcon=mxgraph.aws4.group_aws_cloud;strokeColor=#AAB7B8;fillColor=none;verticalAlign=top;align=left;spacingLeft=30;fontColor=#AAB7B8;dashed=0;" vertex="1" parent="1">
          <mxGeometry x="200" y="40" width="470" height="320" as="geometry" />
        </mxCell>
        <mxCell id="dwLoChwqNWsPl4xWxsss-6" value="eu-west-3 (Paris)" style="sketch=0;outlineConnect=0;gradientColor=none;html=1;whiteSpace=wrap;fontSize=12;fontStyle=0;shape=mxgraph.aws4.group;grIcon=mxgraph.aws4.group_region;strokeColor=#879196;fillColor=none;verticalAlign=top;align=left;spacingLeft=30;fontColor=#879196;dashed=1;" vertex="1" parent="1">
          <mxGeometry x="230" y="80" width="400" height="240" as="geometry" />
        </mxCell>
        <mxCell id="dwLoChwqNWsPl4xWxsss-10" style="edgeStyle=orthogonalEdgeStyle;rounded=0;orthogonalLoop=1;jettySize=auto;html=1;entryX=0;entryY=0.5;entryDx=0;entryDy=0;startArrow=classic;startFill=1;" edge="1" parent="1" source="dwLoChwqNWsPl4xWxsss-2" target="dwLoChwqNWsPl4xWxsss-9">
          <mxGeometry relative="1" as="geometry" />
        </mxCell>
        <mxCell id="dwLoChwqNWsPl4xWxsss-2" value="Testeur" style="image;aspect=fixed;perimeter=ellipsePerimeter;html=1;align=center;shadow=0;dashed=0;spacingTop=3;image=img/lib/active_directory/laptop_client.svg;" vertex="1" parent="1">
          <mxGeometry x="30" y="175" width="45" height="50" as="geometry" />
        </mxCell>
        <mxCell id="dwLoChwqNWsPl4xWxsss-5" value="VPC" style="points=[[0,0],[0.25,0],[0.5,0],[0.75,0],[1,0],[1,0.25],[1,0.5],[1,0.75],[1,1],[0.75,1],[0.5,1],[0.25,1],[0,1],[0,0.75],[0,0.5],[0,0.25]];outlineConnect=0;gradientColor=none;html=1;whiteSpace=wrap;fontSize=12;fontStyle=0;container=1;pointerEvents=0;collapsible=0;recursiveResize=0;shape=mxgraph.aws4.group;grIcon=mxgraph.aws4.group_vpc2;strokeColor=#8C4FFF;fillColor=none;verticalAlign=top;align=left;spacingLeft=30;fontColor=#AAB7B8;dashed=0;" vertex="1" parent="1">
          <mxGeometry x="270" y="120" width="320" height="160" as="geometry" />
        </mxCell>
        <mxCell id="dwLoChwqNWsPl4xWxsss-4" value="Internet Gateway" style="sketch=0;outlineConnect=0;fontColor=#232F3E;gradientColor=none;fillColor=#8C4FFF;strokeColor=none;dashed=0;verticalLabelPosition=bottom;verticalAlign=top;align=center;html=1;fontSize=12;fontStyle=0;aspect=fixed;pointerEvents=1;shape=mxgraph.aws4.internet_gateway;" vertex="1" parent="dwLoChwqNWsPl4xWxsss-5">
          <mxGeometry x="50" y="60" width="40" height="40" as="geometry" />
        </mxCell>
        <mxCell id="dwLoChwqNWsPl4xWxsss-7" value="Public subnet" style="points=[[0,0],[0.25,0],[0.5,0],[0.75,0],[1,0],[1,0.25],[1,0.5],[1,0.75],[1,1],[0.75,1],[0.5,1],[0.25,1],[0,1],[0,0.75],[0,0.5],[0,0.25]];outlineConnect=0;gradientColor=none;html=1;whiteSpace=wrap;fontSize=12;fontStyle=0;container=1;pointerEvents=0;collapsible=0;recursiveResize=0;shape=mxgraph.aws4.group;grIcon=mxgraph.aws4.group_security_group;grStroke=0;strokeColor=#7AA116;fillColor=#F2F6E8;verticalAlign=top;align=left;spacingLeft=30;fontColor=#248814;dashed=0;" vertex="1" parent="1">
          <mxGeometry x="430" y="135" width="130" height="130" as="geometry" />
        </mxCell>
        <mxCell id="dwLoChwqNWsPl4xWxsss-8" value="Serveur&lt;br&gt;(calcserver.jar)" style="sketch=0;points=[[0,0,0],[0.25,0,0],[0.5,0,0],[0.75,0,0],[1,0,0],[0,1,0],[0.25,1,0],[0.5,1,0],[0.75,1,0],[1,1,0],[0,0.25,0],[0,0.5,0],[0,0.75,0],[1,0.25,0],[1,0.5,0],[1,0.75,0]];outlineConnect=0;fontColor=#232F3E;fillColor=#ED7100;strokeColor=#ffffff;dashed=0;verticalLabelPosition=bottom;verticalAlign=top;align=center;html=1;fontSize=12;fontStyle=0;aspect=fixed;shape=mxgraph.aws4.resourceIcon;resIcon=mxgraph.aws4.ec2;" vertex="1" parent="dwLoChwqNWsPl4xWxsss-7">
          <mxGeometry x="40" y="40" width="50" height="50" as="geometry" />
        </mxCell>
        <mxCell id="dwLoChwqNWsPl4xWxsss-11" style="edgeStyle=orthogonalEdgeStyle;rounded=0;orthogonalLoop=1;jettySize=auto;html=1;startArrow=classic;startFill=1;" edge="1" parent="1" source="dwLoChwqNWsPl4xWxsss-9" target="dwLoChwqNWsPl4xWxsss-4">
          <mxGeometry relative="1" as="geometry" />
        </mxCell>
        <mxCell id="dwLoChwqNWsPl4xWxsss-9" value="Internet" style="image;aspect=fixed;perimeter=ellipsePerimeter;html=1;align=center;shadow=0;dashed=0;spacingTop=3;image=img/lib/active_directory/internet_cloud.svg;" vertex="1" parent="1">
          <mxGeometry x="140" y="184.25" width="50" height="31.5" as="geometry" />
        </mxCell>
        <mxCell id="dwLoChwqNWsPl4xWxsss-12" style="edgeStyle=orthogonalEdgeStyle;rounded=0;orthogonalLoop=1;jettySize=auto;html=1;entryX=0;entryY=0.5;entryDx=0;entryDy=0;entryPerimeter=0;startArrow=classic;startFill=1;" edge="1" parent="1" source="dwLoChwqNWsPl4xWxsss-4" target="dwLoChwqNWsPl4xWxsss-8">
          <mxGeometry relative="1" as="geometry" />
        </mxCell>
        <mxCell id="dwLoChwqNWsPl4xWxsss-14" style="edgeStyle=orthogonalEdgeStyle;rounded=0;orthogonalLoop=1;jettySize=auto;html=1;endArrow=none;endFill=0;dashed=1;" edge="1" parent="1" source="dwLoChwqNWsPl4xWxsss-13">
          <mxGeometry relative="1" as="geometry">
            <mxPoint x="110" y="200" as="targetPoint" />
          </mxGeometry>
        </mxCell>
        <mxCell id="dwLoChwqNWsPl4xWxsss-13" value="&lt;div align=&quot;left&quot;&gt;&lt;b&gt;Protocol:&lt;/b&gt; UDP&lt;br&gt;&lt;b&gt;Dest:&lt;/b&gt; &lt;i&gt;Public Server IP&lt;/i&gt;&lt;br&gt;&lt;b&gt;Port:&lt;/b&gt; 5432&lt;br&gt;&lt;/div&gt;" style="shape=note;whiteSpace=wrap;html=1;backgroundOutline=1;darkOpacity=0.05;dashed=1;" vertex="1" parent="1">
          <mxGeometry x="40" y="270" width="140" height="90" as="geometry" />
        </mxCell>
        <mxCell id="dwLoChwqNWsPl4xWxsss-15" value="&lt;ul&gt;&lt;li align=&quot;left&quot;&gt;1 vCPU&lt;/li&gt;&lt;li align=&quot;left&quot;&gt;1 Go RAM&lt;/li&gt;&lt;li align=&quot;left&quot;&gt;Network Perfs: Low to Moderate&lt;/li&gt;&lt;/ul&gt;" style="shape=note;whiteSpace=wrap;html=1;backgroundOutline=1;darkOpacity=0.05;align=left;dashed=1;" vertex="1" parent="1">
          <mxGeometry x="580" y="165" width="180" height="70" as="geometry" />
        </mxCell>
        <mxCell id="dwLoChwqNWsPl4xWxsss-16" style="edgeStyle=orthogonalEdgeStyle;rounded=0;orthogonalLoop=1;jettySize=auto;html=1;entryX=1;entryY=0.5;entryDx=0;entryDy=0;entryPerimeter=0;endArrow=none;endFill=0;dashed=1;" edge="1" parent="1" source="dwLoChwqNWsPl4xWxsss-15" target="dwLoChwqNWsPl4xWxsss-8">
          <mxGeometry relative="1" as="geometry" />
        </mxCell>
      </root>
    </mxGraphModel>
  </diagram>
</mxfile>
